<svg version="1" xmlns="http://www.w3.org/2000/svg" width="480" height="480" viewBox="0 0 360.000000 360.000000"><path d="M0 143v143h2.1c1.5 0 2 .5 1.7 2.2-.2 1.6-.9 2.2-2 2-1.7-.3-1.8 1.3-1.8 22.1v22.5l2.3.5c1.2.3 27.4 6 58.3 12.6l56 12.1h121.2l60.4-13c33.2-7.1 60.6-13 61.1-13 .4 0 .7-7 .7-15.5V303h-2.8c-3.8 0-5.2-1.7-5.2-6.4 0-3.3.6-4.5 4-7.7l4-3.8v-14.6c0-13.9-.1-14.5-2-14.5-1.1 0-2.3-.7-2.6-1.5-.8-1.9 1.5-4.8 3.3-4.1 1.1.5 1.3-20.5 1.3-124.9V0H0v143zm239.2-92.1c3 2.7 3.3 3.4 3.1 8-.4 10-7.9 36.3-18.2 64.1-2.8 7.4-4.8 13.6-4.6 13.8.2.2 4.2-1.5 8.8-3.8 18.1-9 27.2-20.6 20.8-26.4-5.4-4.9 5.9-9.7 14.3-6.2 7 2.9 8.4 9.5 4 18.5-3.8 7.5-14.2 14.8-29.6 20.6-2.7 1-4.8 2.3-4.8 2.9 0 1.9 5.8 13.5 8.6 17.1 5.2 6.9 12.2 9.2 18.3 6 3.3-1.6 4.1-1.2 4.1 2.3 0 5.9-9.3 13.2-17 13.2-4.9 0-10.8-3-15.3-7.6-3.7-3.8-10.9-17.1-12.2-22.7-.4-1.5-1.1-2.7-1.5-2.7-.4 0-3.8 6.7-7.5 15-3.7 8.2-7.6 15.7-8.6 16.6-3.6 3.2-12.9-1.2-12.9-6.2 0-.7 2.1-5.7 4.6-11.1 13.1-28.2 25.8-67.7 31.4-98.2 2.5-13.3 4-16.1 8.5-16.1 1.4 0 3.9 1.3 5.7 2.9zM71.8 60.6c19.2 4.9 29.7 16.8 30.9 35 1.4 20-7.9 41.3-26.2 60-9 9.1-17.4 15.1-27.9 19.9-16.1 7.4-28.1 7.2-36.8-.5-3.5-3.1-4.1-4.2-4.6-8.8-.5-5.9 2.2-19.2 6.8-32.8 2.1-6.1 2.6-8.6 1.7-8.9-.7-.2-2.5-.6-4.2-1C2.3 121.6 1 121 1 118.6c0-2.7 2.2-8.2 4.5-11.1 1.4-1.8 2-1.8 8.3-.7 3.8.6 7.5 1.4 8.3 1.7 1 .3 2.9-2.5 6.6-9.8 7.1-14 7.9-14.7 15.7-14.7 4.7 0 7 .5 8.6 1.8l2.2 1.8-4.1 6.7c-5.9 9.7-10.3 18.6-9.6 19.7.4.6 1.2 1 2 1s2.6.5 4 1.2c2.1 1 2.5 1.8 2.5 5.7 0 2.5-.3 5.7-.7 7-.6 2.3-.8 2.3-8.3 1.7l-7.8-.6-4 12.2c-4.2 12.9-6.7 24-5.8 26.4.9 2.3 6.7 1.6 13.4-1.6 22.6-10.7 42.7-35 47.8-57.8 5.2-23.3-5-38.1-26.2-38.2-9.6 0-18.7 2.5-25.4 7-5.1 3.4-8 3.7-12 1.4-2.9-1.8-6-6.2-6-8.7 0-4.4 13-9.8 28-11.6 9-1.1 21.1-.5 28.8 1.5zm64.2 39.9c5.8 3 6.3 7.3 2.4 19.7-1.4 4.6-6 15.9-10.1 25.2-8.1 18.3-8.6 21.6-3.5 21.6 2.1 0 4.5-1.9 10.7-8.3 9.6-9.9 15.4-18.2 27-38.7 9.3-16.4 12.7-21 15.7-21 2.9 0 8.8 2.8 9.4 4.5.4.8-2.9 9.4-7.4 19.3-9.5 21-13.2 31.5-13.2 37.4 0 6.1 1 7.2 5.6 6.4 8.1-1.3 7.9-1.3 7.7 1.9-.5 6.4-8.8 12.5-17 12.5-3.5 0-5-.6-7.9-3.3-5.2-4.7-5.6-10.1-1.6-22.5 1.6-5 2.9-9.2 2.7-9.2-.1 0-2.9 3.5-6.1 7.7-12.9 17.3-24.9 27.3-32.6 27.3-4.9 0-10.1-3-12-7-3.6-7-2.1-13.5 8.5-37.5 3.6-8.3 7.1-17.2 7.8-19.8 1.1-4.7 1.1-4.9-1.7-7.8-3.4-3.5-2.7-5.4 2.7-8.1 4.2-2.2 9.1-2.3 12.9-.3zm189.9-.5c1.9.5 4.9 2.4 6.7 4.1l3.2 3.1 4.1-4.2c3.7-3.9 4.4-4.2 7.8-3.7 2 .4 4.8 1.7 6.1 3l2.4 2.4-2.2 4.2c-4.6 9.1-15 33.5-17 39.7-2.6 8.5-2.6 13.8 0 16.4 2.4 2.4 3.5 2.5 8.9.5 3.6-1.2 4.3-1.3 4.7 0 .9 2.3-2.7 8.6-6.8 11.9-2.9 2.2-5.1 3-9 3.3-9.4.7-14.8-5.1-14.8-15.8v-5.2l-3.8 5.9c-11.7 18.1-29.9 20.7-38.6 5.4-2.9-5.1-3.1-6.1-3-15 0-7.1.6-11.2 2.3-16 6.3-18.3 21.6-34.9 36.4-39.5 5.2-1.7 8.2-1.8 12.6-.5zM13.8 253.4c-.4 2.5-4.3 3.4-5.1 1.2-.8-2 1.9-4.7 3.9-3.9.8.3 1.4 1.5 1.2 2.7zm15 0c-.4 2.5-4.3 3.4-5.1 1.2-.8-2 1.9-4.7 3.9-3.9.8.3 1.4 1.5 1.2 2.7zm15.5-1c.8 2-.8 3.8-2.9 3.4-2.2-.4-3.1-3.7-1.3-4.8 1.5-1 3.6-.3 4.2 1.4zm15 0c.8 2-.8 3.8-2.9 3.4-2.2-.4-3.1-3.7-1.3-4.8 1.5-1 3.6-.3 4.2 1.4zm14.6-1c1.7 2 .2 4.8-2.3 4.4-2.4-.3-3.4-3.7-1.4-4.9 1.8-1.2 2.4-1.1 3.7.5zm15 0c1.7 2 .2 4.8-2.3 4.4-2.4-.3-3.4-3.7-1.4-4.9 1.8-1.2 2.4-1.1 3.7.5zm15.1.1c1.7 2 .5 4.5-2 4.5-1.1 0-2.3-.7-2.6-1.5-.6-1.5 1.1-4.5 2.6-4.5.4 0 1.3.7 2 1.5zm15 0c1.7 2 .5 4.5-2 4.5-1.1 0-2.3-.7-2.6-1.5-.6-1.5 1.1-4.5 2.6-4.5.4 0 1.3.7 2 1.5zm15 0c1.7 2 .5 4.5-2 4.5-1.1 0-2.3-.7-2.6-1.5-.6-1.5 1.1-4.5 2.6-4.5.4 0 1.3.7 2 1.5zm15 0c1.7 2 .5 4.5-2 4.5-1.1 0-2.3-.7-2.6-1.5-.6-1.5 1.1-4.5 2.6-4.5.4 0 1.3.7 2 1.5zm15 0c1.7 2 .5 4.5-2 4.5-1.1 0-2.3-.7-2.6-1.5-.6-1.5 1.1-4.5 2.6-4.5.4 0 1.3.7 2 1.5zm14.8-.6c2 1.2 1 4.6-1.4 4.9-2.5.4-4-2.4-2.3-4.4 1.3-1.6 1.9-1.7 3.7-.5zm15 0c2 1.2 1 4.6-1.4 4.9-2.5.4-4-2.4-2.3-4.4 1.3-1.6 1.9-1.7 3.7-.5zm16 2.5c-.4 2.5-4.3 3.4-5.1 1.2-.8-2 1.9-4.7 3.9-3.9.8.3 1.4 1.5 1.2 2.7zm15 0c-.2 1.3-1 2.1-2.3 2.1-2.3 0-3.3-3.4-1.4-4.5 2-1.3 4 .1 3.7 2.4zm15.5-1c.8 2-.8 3.8-2.9 3.4-2.2-.4-3.1-3.7-1.3-4.8 1.5-1 3.6-.3 4.2 1.4zm15 0c.8 2-.8 3.8-2.9 3.4-2.2-.4-3.1-3.7-1.3-4.8 1.5-1 3.6-.3 4.2 1.4zm14.6-1c1.7 2 .2 4.8-2.3 4.4-2.4-.3-3.4-3.7-1.4-4.9 1.8-1.2 2.4-1.1 3.7.5zm15.1.1c1.8 2.1.5 4.7-2.2 4.3-2.6-.3-3.7-3.6-1.6-4.9 1.8-1.2 2.4-1.1 3.8.6zm15 0c1.7 2 .5 4.5-2 4.5-1.1 0-2.3-.7-2.6-1.5-.6-1.5 1.1-4.5 2.6-4.5.4 0 1.3.7 2 1.5zm15 0c1.7 2 .5 4.5-2 4.5-1.1 0-2.3-.7-2.6-1.5-.6-1.5 1.1-4.5 2.6-4.5.4 0 1.3.7 2 1.5zm15 0c1.7 2 .5 4.5-2 4.5-1.1 0-2.3-.7-2.6-1.5-.6-1.5 1.1-4.5 2.6-4.5.4 0 1.3.7 2 1.5zm15 0c1.7 2 .5 4.5-2 4.5-1.1 0-2.3-.7-2.6-1.5-.6-1.5 1.1-4.5 2.6-4.5.4 0 1.3.7 2 1.5zM98 276.8c0 1-1.3 5.8-3 10.7-3.4 10.1-3.7 12.5-1.4 12.5 1.4 0 1.4.3.4 1.5-1.6 2-4.9 1.9-5.7-.1-.3-.9.8-6.1 2.6-11.7 1.7-5.6 3.1-10.9 3.1-11.8 0-1.9.9-2.9 2.7-2.9.7 0 1.3.8 1.3 1.8zm21-1.4c0 .2-1.6 5.2-3.5 11-3.9 12.1-4.2 13.6-1.9 13.6 2.1 0 1.2 2.4-1.1 2.9-1 .2-2.5-.5-3.2-1.5-1.2-1.6-1.4-1.6-3.1-.1-2.6 2.3-5.9 2.1-7.3-.4-2.8-5.4 4.3-15.5 10.3-14.7 2.4.4 3 0 3.5-2.1 1.3-5.2 3.4-9.1 4.8-9.1.8 0 1.5.2 1.5.4zm50.5.5c.3.5-.6 4.5-1.9 8.8l-2.5 7.8 2.7-3.3c2.8-3.3 6.8-4.3 7.8-1.9.3.8-.4 3.7-1.6 6.6-2.4 6.2-2.4 6.1-.4 6.1 2.6 0 1 2.5-1.8 2.8-3.5.4-4-1.9-1.7-8.2 1-2.8 1.6-5.2 1.3-5.5-.8-.8-6.1 5.6-8.5 10.1-1.1 2.1-2.6 3.8-3.4 3.8-2 0-1.9-.5 1-7.5 1.3-3.3 3.2-9.3 4.1-13.3 1.6-6.6 3.3-8.8 4.9-6.3zM224 277c0 1.1-1.3 6.2-3 11.3-3.4 10.7-3.6 11.7-1.5 11.7.9 0 1.2.6.9 1.5-.8 2-5.3 1.9-6.1 0-.3-.9.8-5.9 2.5-11.3 1.6-5.3 3.3-10.9 3.6-12.5.7-3.1 3.6-3.7 3.6-.7zm20-.1c0 1-.7 3.8-1.5 6.1-1.9 5.2-1.9 5.5-.1 4.1.8-.7 2.7-1.1 4.3-.9 2.6.3 2.8.7 3.1 5.1.3 4.3 0 5.1-3.1 8.2-2.4 2.4-4.4 3.5-6.4 3.5-5.7 0-6.6-3.6-3.4-13.6 1.1-3.2 2.5-7.8 3.1-10.2 1.1-4.3 4-6 4-2.3zm75 1.6c2.5-2.3 2.8 0 .3 2.7-2.3 2.5-4.2 2.3-5.3-.8-1.4-3.6-1.3-3.9 1-1.9 1.9 1.7 2.1 1.7 4 0zm-42 .9c0 2.4-2.6 3.8-4 2.2-.6-.9-.9-2-.5-2.6.9-1.5 4.5-1.2 4.5.4zm9 0c0 2.4-2.6 3.8-4 2.2-.6-.9-.9-2-.5-2.6.9-1.5 4.5-1.2 4.5.4zm65.5-.5c.7 1.2-2.4 4.3-3.6 3.6-.5-.4-.9-1.5-.9-2.6 0-2 3.4-2.7 4.5-1zM21 287.1c0 .4-.9 2.8-2 5.4-2.4 5.6-2.5 7.5-.4 7.5 2.3 0 1.1 2.4-1.4 2.8-1.3.2-2.5-.3-2.8-1.3-.6-1.5-.8-1.5-2.4 0-2.2 2-5.9 1.6-7.3-.6-1.6-2.5.1-8.6 3.4-11.8 2.5-2.6 3.6-3 7.9-2.9 2.8.1 5 .5 5 .9zm9.2 1.7c-.2 1.3-1.2 4.2-2.2 6.5-2.2 5-1.2 6.7 2.4 4.3 3.6-2.3 4.9-5.3 4.3-9.7-.4-3.4-.2-3.9 1.4-3.9 2.7 0 3.4 2.4 2 7-1.5 4.9-7.1 10-11.2 10-4 0-4.6-2.1-2.4-8.4 1.1-2.8 1.8-5.9 1.7-6.9 0-1.3.5-1.7 2.1-1.5 1.7.2 2.1.9 1.9 2.6zm27.8-1.7c0 .4-.9 2.6-2 5-2.4 5.3-2.5 7.9-.4 7.9 2.6 0 .9 2.5-1.9 2.8-1.9.2-2.7-.1-2.7-1.2 0-2-.7-2-2.7 0-.9.8-2.7 1.4-4.2 1.2-2.2-.2-2.7-.9-2.9-3.7-.8-7.8 4.1-13 11.9-12.9 2.7.1 4.9.5 4.9.9zm27 1.4c2.4 6.2-3 14.5-9.4 14.5-3 0-3.8-.5-4.7-2.6-2.2-6 3.5-14.4 9.8-14.4 2.7 0 3.5.5 4.3 2.5zm55.9-.7c.7 1.3.6 2.3-.1 3-1.8 1.8-2.8 1.4-2.8-.8 0-1.3-.7-2-2-2-2.6 0-2.5 2.2.2 7 2.2 3.8 2.2 3.9.4 5.9-2.2 2.5-6.8 2.8-8.6.6-1-1.3-1.1-1.8-.1-2.8 1-.9 1.4-.8 2.2.5 1.1 2.1 3.9 2.4 3.9.5 0-.6-.9-2.6-2-4.2-2.4-3.7-2.5-5.3-.3-7.7 2.2-2.4 7.9-2.4 9.2 0zm15.6 2.2c0 2.9-.4 3.6-2.2 3.8-2.3.3-3.1-1.2-1.3-2.3 1.5-.9 1.2-3.5-.4-3.5-2.4 0-5.6 5-5.6 8.7 0 4.1 2 5.2 5.5 2.9 2.8-1.8 3.4-.6.9 1.8-2 2-7.8 2.1-9.4.1-.8-1-1.1-3.1-.7-5.8.8-5.5 5.4-10 10-9.5 2.9.3 3.2.6 3.2 3.8zm36.7-1.5c2.6 5.7-3.1 14.5-9.3 14.5-6.3 0-7.1-8.6-1.3-14.4 3.6-3.6 9-3.6 10.6-.1zm17.8 0c2.4 6.2-3 14.5-9.4 14.5-3 0-3.8-.5-4.7-2.6-2.2-6 3.5-14.4 9.8-14.4 2.7 0 3.5.5 4.3 2.5zm48.3 1l-.2 3 2-3.3c2.5-3.8 6.2-4.5 5.7-1-.2 1.6-1 2.3-2.7 2.3-1.9 0-3 1.2-5.5 6-1.7 3.3-3.2 6.2-3.3 6.4-.1.2-.9.1-1.8-.2-1.3-.6-1.2-1.3.6-5.9 1.2-3.2 1.8-6.4 1.5-8.1-.5-2.5-.3-2.8 1.7-2.5 1.8.2 2.2.9 2 3.3zm15.7-2.3c0 .7-.9 3.3-2 5.7-2.3 5-2.5 6.8-.8 7.3 1.8.6 0 2.8-2.3 2.8-3 0-3.3-2.6-1.1-8.5 1.2-3 1.9-6.2 1.6-7-.5-1.1.1-1.5 2-1.5 1.4 0 2.6.6 2.6 1.2zm8.7 4c-.8 6.5-6.2 17.5-9.9 20.2-3.5 2.5-4.7 1.5-1.8-1.4 3.3-3.3 7.1-12.3 7.7-18.5.5-4.6.9-5.5 2.6-5.5 1.8 0 1.9.5 1.4 5.2zm20.3-4.1c0 .4-.9 2.8-2 5.4-2.4 5.6-2.5 7.5-.4 7.5 2.3 0 1.1 2.4-1.4 2.8-1.3.2-2.5-.3-2.8-1.3-.6-1.5-.8-1.5-2.4 0-2.2 2-5.9 1.6-7.3-.6-1.6-2.5.1-8.6 3.4-11.8 2.5-2.6 3.6-3 7.9-2.9 2.8.1 5 .5 5 .9zm15.8.6c1.2 2.3-.3 6.3-2.3 6.3-1.3 0-1.5-.6-1-3 .9-4.2-1.9-4-4.5.2-3.9 6.5-1.7 11.8 3.5 8.4 2.1-1.4 2.5-1.4 2.5-.2 0 3.2-8.2 5-10.8 2.4-2.8-2.8-.4-11.1 4-14.2 3-2.1 7.5-2 8.6.1zm9 1.3l-.5 3.1 2.8-3.1c3-3.2 6.6-3.9 7.6-1.5.4 1.3-.9 5.9-3.5 11.7-.2.5.4.8 1.3.8s1.5.6 1.3 1.2c-.3.7-1.6 1.3-2.9 1.3-3.1 0-3.7-3.4-1.3-8.7.9-2.1 1.4-4.2 1-4.6-1-.9-6.1 5-8.7 10-1.1 2.1-2.6 3.8-3.4 3.8-2 0-1.9-.3 1-7.6 1.4-3.4 2.2-7 1.9-7.8-.4-1.2 0-1.6 1.6-1.6 1.9 0 2.2.4 1.8 3zm20.2-1.3c0 1-.9 3.8-2 6.2-2.4 5.2-2.5 6.1-.4 6.1 2.6 0 1 2.5-1.8 2.8-3.3.4-3.9-1.5-2-6.3.8-2.2 1.5-5.5 1.5-7.3 0-2.7.4-3.2 2.4-3.2 1.5 0 2.3.6 2.3 1.7zm-155.3 39.8c-.7 4-5.5 14.5-6.7 14.5-.5 0 .2-2.8 1.6-6.2 2.8-7.2 3-9 .9-8.2-2.2.9-1.8-.5.7-2.6 3-2.4 4.1-1.5 3.5 2.5zm12.4-3.5c3.5 1.9 2.1 11-2.3 15.7-2.8 3-7.8 3.2-7.8.3 0-1.1.7-2 1.5-2 .9 0 1.2.6.9 1.5-.9 2.4 2.3 1.8 4-.7 2-2.9 2-4.2 0-3.4-2.5 1-5.4-1.2-5.4-4 0-1.5 1.2-3.8 2.9-5.5 3.3-3.3 3.5-3.3 6.2-1.9zm14.3.6c2.1 2.1 2 4.6-.3 7.1-1.3 1.3-1.8 2.9-1.4 4.2.7 2.9-2.3 6.1-5.8 6.1-2.8 0-4-1.5-3.1-3.8.7-1.9 2.2-1.4 2.2.8 0 2.3 1 2.6 2.8.8 1.6-1.6 1.5-4.5 0-5.1-.8-.3-.3-1.2 1.5-2.6 2.9-2.4 3.8-7.1 1.2-7.1-1.7 0-3.4 2.9-2.8 4.7.3.7-.3 1.3-1.2 1.3-2.7 0-1.5-5.2 1.5-6.7 3.2-1.6 3.5-1.6 5.4.3zm12.7-.6c2.6 1.4 2.5 6.4-.1 8.3-1.5 1.1-1.9 2.1-1.4 4.4.7 3.6-1.3 5.6-5.3 5.1-3.4-.4-4.2-3.1-1.7-5.9 1.2-1.4 1.7-3.3 1.5-5.9-.2-3 .2-4.1 2.1-5.4 2.7-1.9 2.4-1.9 4.9-.6zm-93.1 1.5c0 .8-.7 1.5-1.5 1.5s-1.5-.7-1.5-1.5.7-1.5 1.5-1.5 1.5.7 1.5 1.5zm-33.2 6.6c1.9.7 2.2 1.3 1.4 2.1-.7.7-1.2 2.3-1.2 3.5 0 2-.3 2.2-1.8 1.4-1.1-.6-2.4-.6-3.3 0-2.2 1.4-2.8 1.1-2.2-1.1.3-1.1 0-2.7-.7-3.5-1-1.2-.9-1.6.6-2.2 1.1-.3 2.3-1.3 2.8-2.2.7-1.2 1.1-1.2 1.4-.3.2.7 1.6 1.8 3 2.3zm146 0c1.9.7 2.2 1.3 1.4 2.1-.7.7-1.2 2.3-1.2 3.5 0 2-.3 2.2-1.8 1.4-1.1-.6-2.4-.6-3.3 0-2.2 1.4-2.8 1.1-2.2-1.1.3-1.1 0-2.7-.7-3.5-1-1.2-.9-1.6.6-2.2 1.1-.3 2.3-1.3 2.8-2.2.7-1.2 1.1-1.2 1.4-.3.2.7 1.6 1.8 3 2.3zm-121.1-.6c.8 2.3-.7 3.3-1.8 1.2-.6-.9-1.4-1.7-1.9-1.7-1.5 0-1.2 2.8.6 5.5 1.3 2 1.4 2.8.4 4-1.4 1.7-5.6 2-6.5.4-1.1-1.7.3-2.3 2-.9 2.5 2.1 3 .3 1-3.4-1.6-2.9-1.7-3.7-.6-5 1.7-2 6-2.1 6.8-.1zm7.3-1.1c0 .2-.7 2-1.5 4.1-.9 2-1.3 4.5-1 5.6.5 1.5.2 1.9-1.4 1.9-2.5 0-2.6-1.5-.6-6.4.9-2 1.3-4.1 1-4.6-.4-.6.3-1 1.4-1 1.2 0 2.1.2 2.1.4zm6.6 2.8c.1 1.5-.2 3-.7 3.4-.6.3-1.4 1.7-1.9 3s-1.4 2.4-2 2.4c-1.4 0-1.3-1.1.6-5.5.8-2.1 1.3-4.4 1-5.2-.4-1 0-1.3 1-1.1 1 .2 1.8 1.5 2 3zm6.4-1.2c0 1-.5 3.1-1.2 4.5-1 2.2-.9 2.8.2 3.5 1.2.7 1.1 1-.3 1.6-3.1 1.1-4-1-2.3-5.1 1.8-4.2 1.5-5.5-.9-3.5-1.8 1.5-2-.1-.3-1.8 1.9-1.9 4.8-1.5 4.8.8zm12.7-.4c.3.8-.2 2.3-1 3.2-2 1.9-3.5.9-1.8-1.2 1.7-2-.4-3-2.3-1-2.2 2.1-3.1 6.3-1.7 7.7.8.8 1.4.8 2.3-.1 1.7-1.7 3.3-1.5 1.8.3-2.9 3.5-8.8.7-7.5-3.7 1.7-5.5 8.7-9.1 10.2-5.2zm10.8 1.4c0 1.9-.8 2.9-3.3 3.9-1.8.8-3.1 2-2.8 2.5.4 1.2 1 1.2 4 0 1.4-.5 1.7-.3 1.4.7-.7 2-6.2 2.3-7.7.5-2.8-3.3 1.9-11 6.2-10.4 1.6.2 2.2 1 2.2 2.8z"/><path d="M316.5 110.8c-9.1 4.3-19.2 19.1-23 33.7-2.2 8.6-2 20.7.3 22.8 2.5 2.3 5.3 2.1 9.3-.6 10.7-7.2 29.6-43.7 26.7-51.8-1.9-5.5-7-7-13.3-4.1zM105 290.5c-2.7 2.9-3.5 10-1 10 1.6 0 7.3-10.2 6.4-11.6-.9-1.6-3-1-5.4 1.6zM242.3 290.2c-4.5 5-5.8 10.8-2.5 10.8 3.6 0 8-7.8 6.5-11.6-.7-1.9-1.6-1.8-4 .8zM10 291.2c-2 3.3-2.8 9.8-1.2 9.8 2 0 7.2-8.3 7.2-11.5 0-2.8-3.9-1.7-6 1.7zM47.6 289.9c-4 4.4-4.2 13.5-.2 10.2 2.1-1.8 5.9-9.9 5.1-11.1-1-1.6-3-1.2-4.9.9zM77.7 289.8c-1.9 2.1-3.7 6.6-3.7 9.3 0 3.5 3.8 2.3 6-2.1 3.5-6.8 1.9-11.9-2.3-7.2zM185.7 289.8c-1.9 2.1-3.7 6.6-3.7 9.3 0 3.5 3.8 2.3 6-2.1 3.5-6.8 1.9-11.9-2.3-7.2zM203.7 289.8c-1.9 2.1-3.7 6.6-3.7 9.3 0 3.5 3.8 2.3 6-2.1 3.5-6.8 1.9-11.9-2.3-7.2zM293 291.2c-2 3.3-2.8 9.8-1.2 9.8 2 0 7.2-8.3 7.2-11.5 0-2.8-3.9-1.7-6 1.7zM201.7 326.8c-2.1 2.3-2.3 7.2-.3 7.2 2 0 3.7-2.4 3.9-5.6.2-3.3-1.4-4.1-3.6-1.6zM228.4 326.4c-.8 2.1-.1 4.9 1.3 5.3 1.5.5 3.5-3.1 2.7-5.1-.8-2-3.3-2.1-4-.2zM226.1 336.4c-1.6 1.9-.7 4.6 1.4 4.6 2.2 0 3-2.9 1.3-4.6-1.3-1.3-1.6-1.3-2.7 0zM170.5 333.2c-.9 1.4-1.1 2.4-.5 2.6 1.4.5 4-1.7 4-3.4 0-2.1-1.7-1.7-3.5.8zM357.8 291c-2.4 3.6-2.7 8-.6 9.3 2.5 1.6 2.9.6 2.6-5.9-.3-5.9-.3-5.9-2-3.4zM303.2 347.4l-56.3 12.1 17.3.3 17.3.2 38.5-8.1c21.2-4.5 38.9-8.6 39.3-8.9.5-.4.7-2.3.5-4.2l-.3-3.5-56.3 12.1zM.2 340.4l.3 4.1 35.5 7.7 35.5 7.7 18-.2 18-.2-53.8-11.6-53.8-11.5.3 4zM335.5 354.5l-24 5.3 24.3.1 24.2.1v-5.5c0-3-.1-5.5-.2-5.4-.2.1-11.1 2.5-24.3 5.4zM0 355.5v4.5l21.3-.1 21.2-.1-19.5-4.4C12.3 353 2.7 351 1.8 351c-1.5 0-1.8.9-1.8 4.5z"/></svg>